<?xml version="1.0" encoding="UTF-8"?>
<svg id="a" data-name="Logo" xmlns="http://www.w3.org/2000/svg" viewBox="0 0 700 700">
  <defs>
    <style>
      .b {
        fill: #fff;
      }
    </style>
  </defs>
  <path class="b" d="M547.7,271.3c5,5,9.5,10.4,13.5,16.3s7.4,12.1,10.2,18.7c2.8,6.6,5,13.5,6.4,20.7,1.5,7.2,2.2,14.6,2.2,22.2,0,15.2-3.1,29.7-8.7,42.9-5.6,13.2-13.6,25.1-23.6,35s-21.8,18-35,23.6-27.7,8.7-42.9,8.7-15-.8-22.2-2.2-14.1-3.6-20.7-6.4c-6.6-2.8-12.9-6.2-18.7-10.2s-11.3-8.5-16.3-13.5l-5.3,5.3-5.3,5.3-5.3,5.3-5.3,5.3c6.3,6.3,13.3,12.1,20.8,17.1s15.4,9.4,23.8,12.9c8.4,3.5,17.2,6.3,26.3,8.2,9.1,1.9,18.6,2.8,28.3,2.8,19.4,0,37.8-3.9,54.6-11,16.8-7.1,31.9-17.4,44.6-30s23-27.8,30-44.6c7.1-16.8,11-35.2,11-54.6s-1-19.1-2.8-28.3c-1.9-9.1-4.6-17.9-8.2-26.3s-7.9-16.4-12.9-23.8c-5-7.5-10.8-14.4-17.1-20.8l-5.3,5.3-5.3,5.3-5.3,5.3-5.3,5.3ZM151.2,427.2s0,0,0,0,0,0,0,0,0,0,0,0,0,0,0,0c-5-5-9.5-10.4-13.5-16.3s-7.4-12.1-10.2-18.7-5-13.5-6.4-20.7-2.2-14.6-2.2-22.2c0-15.2,3.1-29.7,8.7-42.9s13.6-25.1,23.6-35,21.8-18,35-23.6,27.7-8.7,42.9-8.7,15,.8,22.2,2.2,14.1,3.6,20.7,6.4,12.9,6.2,18.7,10.2,11.3,8.5,16.3,13.5c0,0,0,0,0,0s0,0,0,0,0,0,0,0,0,0,0,0l5.3-5.3,5.3-5.3,5.3-5.3,5.3-5.3c-6.3-6.3-13.3-12.1-20.8-17.1s-15.4-9.4-23.8-12.9-17.2-6.3-26.3-8.2-18.6-2.8-28.3-2.8c-19.4,0-37.8,3.9-54.6,11s-31.9,17.4-44.6,30.1-23,27.8-30.1,44.6-11,35.2-11,54.6,1,19.1,2.8,28.3,4.6,17.9,8.2,26.3,7.9,16.4,12.9,23.8,10.8,14.4,17.1,20.7c0,0,0,0,0,0s0,0,0,0,0,0,0,0,0,0,0,0c1.8,1.8,3.6,3.5,5.5,5.2s3.8,3.3,5.7,4.9,4,3.1,6,4.6,4.1,2.9,6.3,4.3c0,0,0,0,0,0s0,0,0,0,0,0,0,0,0,0,0,0l5.5-5.5,5.5-5.5,5.5-5.5,5.5-5.5s0,0,0,0,0,0,0,0,0,0,0,0,0,0,0,0c-2.2-1.2-4.4-2.6-6.5-3.9s-4.2-2.8-6.2-4.4-4-3.1-5.9-4.8-3.8-3.4-5.5-5.2ZM547,187.2l-7.5,7.5-7.5,7.5-7.5,7.5-7.5,7.5c-3.7-1.3-7.5-2.5-11.3-3.5s-7.7-1.9-11.7-2.6-8-1.2-12-1.6-8.2-.5-12.3-.5-2.8,0-4.2,0-2.8.1-4.2.2-2.8.2-4.1.3-2.7.3-4.1.4c-8,.9-15.8,2.6-23.3,4.8s-14.8,5.1-21.7,8.5-13.5,7.3-19.8,11.8-12.1,9.4-17.5,14.8h-.1c0,.1-.1.2-.1.2h-.1c0,.1-.1.2-.1.2l-42.3,42.3-42.3,42.3-42.3,42.3-42.3,42.3c6.6-.9,13.4-2.2,20.2-4s13.7-4,20.4-6.9,13.3-6.3,19.6-10.3,12.3-8.8,17.8-14.4l12.8-12.8,12.8-12.8,12.8-12.8,12.8-12.8,15.3-15.3,15.3-15.3,15.3-15.3,15.3-15.3s0,0,.1-.1,0,0,.1-.1,0,0,.1-.1,0,0,.1-.1c5-4.9,10.4-9.4,16.3-13.4s12.1-7.3,18.7-10.1,13.5-4.9,20.6-6.4,14.5-2.2,22.1-2.2,3.9,0,5.9.2,3.9.3,5.8.5,3.8.5,5.7.8,3.8.6,5.6,1l-31.1,31.1-31.1,31.1-31.1,31.1-31.1,31.1-15.1,15.1-15.1,15.1-15.1,15.1-15.1,15.1c-.2.2-.3.3-.5.5s-.3.3-.5.5-.3.3-.5.5-.3.3-.5.5c-5,4.8-10.4,9.2-16.2,13.1-5.8,3.8-12,7.2-18.5,9.9s-13.3,4.8-20.4,6.2-14.4,2.2-21.9,2.2-3.9,0-5.9-.2-3.9-.3-5.8-.5-3.8-.5-5.7-.8-3.8-.6-5.6-1l-6.1,6.1-6.1,6.1-6.1,6.1-6.1,6.1c3.7,1.3,7.4,2.5,11.3,3.5s7.7,1.9,11.7,2.6,7.9,1.2,12,1.6,8.1.5,12.3.5,8.9-.2,13.3-.6,8.7-1,12.9-1.8,8.4-1.8,12.5-3,8.1-2.5,12.1-4.1c4.4-1.7,8.8-3.7,13-5.8s8.3-4.5,12.2-7.1,7.7-5.3,11.4-8.2,7.2-6,10.5-9.3l.6-.6.6-.6.6-.6.6-.6h0s0,0,0,0h0s0,0,0,0l73.9-73.9,73.9-73.9,73.9-73.9,73.9-73.9c-6.6.9-13.4,2.2-20.2,4s-13.7,4.1-20.4,6.9-13.3,6.3-19.6,10.3-12.3,8.8-17.8,14.4ZM358.4,164h-15v45h15v-45ZM343.4,534.4h15v-45h-15v45Z"/>
</svg>